<svg xmlns="http://www.w3.org/2000/svg" xmlns:xlink="http://www.w3.org/1999/xlink" width="148.769" height="155.462" viewBox="0 0 148.769 155.462">
  <defs>
    <clipPath id="clip-path">
      <path id="Path_18" data-name="Path 18" d="M346.665,12V158.131a73.065,73.065,0,0,1,0-146.131h0" transform="translate(-273.6 -12)" fill="none"/>
    </clipPath>
    <linearGradient id="linear-gradient" x1="1.95" y1="1.043" x2="1.947" y2="1.043" gradientUnits="objectBoundingBox">
      <stop offset="0" stop-color="#1478c8"/>
      <stop offset="1" stop-color="#fff"/>
    </linearGradient>
    <clipPath id="clip-path-2">
      <rect id="Rectangle_34" data-name="Rectangle 34" width="148.769" height="155.462" fill="none"/>
    </clipPath>
    <clipPath id="clip-path-3">
      <path id="Path_20" data-name="Path 20" d="M294.382,109.469,305.8,174.239A65.768,65.768,0,1,1,282.966,44.7Z" transform="translate(-228.6 -44.7)" fill="none"/>
    </clipPath>
    <linearGradient id="linear-gradient-2" x1="-0.17" y1="-0.228" x2="-0.168" y2="-0.228" xlink:href="#linear-gradient"/>
    <clipPath id="clip-path-5">
      <path id="Path_22" data-name="Path 22" d="M253.266,138.426l19.992,54.926A58.451,58.451,0,0,1,233.274,83.5h0Z" transform="translate(-194.8 -83.5)" fill="none"/>
    </clipPath>
    <linearGradient id="linear-gradient-3" x1="-0.146" y1="-0.105" x2="-0.144" y2="-0.105" xlink:href="#linear-gradient"/>
    <clipPath id="clip-path-7">
      <path id="Path_24" data-name="Path 24" d="M223.958,169.7l25.573,44.3A51.148,51.148,0,0,1,198.385,125.4Z" transform="translate(-172.8 -125.4)" fill="none"/>
    </clipPath>
    <linearGradient id="linear-gradient-4" x1="-0.156" y1="-0.083" x2="-0.154" y2="-0.083" xlink:href="#linear-gradient"/>
    <clipPath id="clip-path-9">
      <path id="Path_26" data-name="Path 26" d="M206.35,201.19l28.186,33.59a43.849,43.849,0,0,1-56.372-67.18Z" transform="translate(-162.5 -167.6)" fill="none"/>
    </clipPath>
    <linearGradient id="linear-gradient-5" x1="-0.207" y1="-0.137" x2="-0.204" y2="-0.137" xlink:href="#linear-gradient"/>
    <clipPath id="clip-path-11">
      <path id="Path_28" data-name="Path 28" d="M199.838,230.893l27.983,23.492A36.537,36.537,0,0,1,171.855,207.4h0Z" transform="translate(-163.3 -207.4)" fill="none"/>
    </clipPath>
    <linearGradient id="linear-gradient-6" x1="-0.305" y1="-0.254" x2="-0.303" y2="-0.254" xlink:href="#linear-gradient"/>
    <clipPath id="clip-path-13">
      <path id="Path_30" data-name="Path 30" d="M203.039,257.013l25.319,14.613A29.234,29.234,0,0,1,177.719,242.4h0Z" transform="translate(-173.8 -242.4)" fill="none"/>
    </clipPath>
    <linearGradient id="linear-gradient-7" x1="-0.482" y1="-0.488" x2="-0.478" y2="-0.488" xlink:href="#linear-gradient"/>
    <clipPath id="clip-path-15">
      <path id="Path_32" data-name="Path 32" d="M214.328,277.91l20.6,7.484a21.922,21.922,0,0,1-41.2-14.994Z" transform="translate(-192.4 -270.4)" fill="none"/>
    </clipPath>
    <linearGradient id="linear-gradient-8" x1="-0.833" y1="-1.046" x2="-0.828" y2="-1.046" xlink:href="#linear-gradient"/>
    <clipPath id="clip-path-17">
      <path id="Path_34" data-name="Path 34" d="M231.44,292.537l14.385,2.537A14.613,14.613,0,0,1,217.055,290Z" transform="translate(-216.9 -290)" fill="none"/>
    </clipPath>
    <linearGradient id="linear-gradient-9" x1="-1.631" y1="-2.625" x2="-1.623" y2="-2.625" xlink:href="#linear-gradient"/>
    <clipPath id="clip-path-18">
      <rect id="Rectangle_50" data-name="Rectangle 50" width="148.769" height="155.462" fill="#020202"/>
    </clipPath>
    <clipPath id="clip-path-19">
      <path id="Path_36" data-name="Path 36" d="M252.107,300h7.306a7.307,7.307,0,1,1-14.613,0Z" transform="translate(-244.8 -300)" fill="none"/>
    </clipPath>
    <linearGradient id="linear-gradient-10" x1="5.25" y1="10.869" x2="5.233" y2="10.869" xlink:href="#linear-gradient"/>
    <clipPath id="clip-path-20">
      <rect id="Rectangle_52" data-name="Rectangle 52" width="148.769" height="155.462" fill="#26cdf0"/>
    </clipPath>
  </defs>
  <g id="Group_50" data-name="Group 50" transform="translate(0)">
    <g id="Group_4" data-name="Group 4" transform="translate(6.294 3.045)" clip-path="url(#clip-path)">
      <rect id="Rectangle_33" data-name="Rectangle 33" width="73.065" height="146.131" transform="translate(0)" fill="url(#linear-gradient)"/>
    </g>
    <g id="Group_5" data-name="Group 5" transform="translate(0)" clip-path="url(#clip-path-2)">
      <path id="Path_19" data-name="Path 19" d="M69.412,26.4a69.412,69.412,0,1,0,69.412,69.412A69.414,69.414,0,0,0,69.412,26.4" transform="translate(9.945 -19.702)" fill="#26cdf0"/>
    </g>
    <g id="Group_6" data-name="Group 6" transform="translate(13.575 11.341)" clip-path="url(#clip-path-3)">
      <rect id="Rectangle_35" data-name="Rectangle 35" width="148.085" height="104.819" transform="translate(-2.773 149.943) rotate(-100)" fill="url(#linear-gradient-2)"/>
    </g>
    <g id="Group_7" data-name="Group 7" transform="translate(0)" clip-path="url(#clip-path-2)">
      <path id="Path_21" data-name="Path 21" d="M90.906,55.2a62.106,62.106,0,1,0,62.106,62.106A62.105,62.105,0,0,0,90.906,55.2" transform="translate(-11.548 -41.196)" fill="#26cdf0"/>
    </g>
    <g id="Group_8" data-name="Group 8" transform="translate(20.89 21.184)" clip-path="url(#clip-path-5)">
      <rect id="Rectangle_37" data-name="Rectangle 37" width="143.01" height="122.126" transform="translate(2.54 148.528) rotate(-110)" fill="url(#linear-gradient-3)"/>
    </g>
    <g id="Group_9" data-name="Group 9" transform="translate(0)" clip-path="url(#clip-path-2)">
      <path id="Path_23" data-name="Path 23" d="M112.4,84a54.8,54.8,0,1,0,54.8,54.8A54.8,54.8,0,0,0,112.4,84" transform="translate(-33.042 -62.689)" fill="#26cdf0"/>
    </g>
    <g id="Group_10" data-name="Group 10" transform="translate(28.198 31.814)" clip-path="url(#clip-path-7)">
      <rect id="Rectangle_39" data-name="Rectangle 39" width="130.935" height="124.092" transform="translate(13.714 139.071) rotate(-120)" fill="url(#linear-gradient-4)"/>
    </g>
    <g id="Group_11" data-name="Group 11" transform="translate(0)" clip-path="url(#clip-path-2)">
      <path id="Path_25" data-name="Path 25" d="M133.892,112.8a47.493,47.493,0,1,0,47.493,47.493A47.488,47.488,0,0,0,133.892,112.8" transform="translate(-54.535 -84.183)" fill="#26cdf0"/>
    </g>
    <g id="Group_12" data-name="Group 12" transform="translate(35.508 42.52)" clip-path="url(#clip-path-9)">
      <rect id="Rectangle_41" data-name="Rectangle 41" width="113.074" height="112.411" transform="matrix(-0.643, -0.766, 0.766, -0.643, 26.649, 120.809)" fill="url(#linear-gradient-5)"/>
    </g>
    <g id="Group_13" data-name="Group 13" transform="translate(0)" clip-path="url(#clip-path-2)">
      <path id="Path_27" data-name="Path 27" d="M155.386,141.6a40.186,40.186,0,1,0,40.186,40.186A40.186,40.186,0,0,0,155.386,141.6" transform="translate(-76.029 -105.676)" fill="#26cdf0"/>
    </g>
    <g id="Group_14" data-name="Group 14" transform="translate(42.819 52.617)" clip-path="url(#clip-path-11)">
      <rect id="Rectangle_43" data-name="Rectangle 43" width="94.224" height="93.676" transform="matrix(-0.766, -0.643, 0.643, -0.766, 36.055, 98.388)" fill="url(#linear-gradient-6)"/>
    </g>
    <g id="Group_15" data-name="Group 15" transform="translate(0)" clip-path="url(#clip-path-2)">
      <path id="Path_29" data-name="Path 29" d="M176.879,170.4a32.879,32.879,0,1,0,32.88,32.879,32.879,32.879,0,0,0-32.88-32.879" transform="translate(-97.522 -127.17)" fill="#26cdf0"/>
    </g>
    <g id="Group_16" data-name="Group 16" transform="translate(50.119 61.497)" clip-path="url(#clip-path-13)">
      <rect id="Rectangle_45" data-name="Rectangle 45" width="74.816" height="70.909" transform="translate(39.887 73.404) rotate(-150)" fill="url(#linear-gradient-7)"/>
    </g>
    <g id="Group_17" data-name="Group 17" transform="translate(0)" clip-path="url(#clip-path-2)">
      <path id="Path_31" data-name="Path 31" d="M198.373,199.2a25.573,25.573,0,1,0,25.573,25.573A25.573,25.573,0,0,0,198.373,199.2" transform="translate(-119.016 -148.663)" fill="#26cdf0"/>
    </g>
    <g id="Group_18" data-name="Group 18" transform="translate(57.429 68.601)" clip-path="url(#clip-path-15)">
      <rect id="Rectangle_47" data-name="Rectangle 47" width="53.632" height="45.798" transform="translate(37.208 46.809) rotate(-160)" fill="url(#linear-gradient-8)"/>
    </g>
    <g id="Group_19" data-name="Group 19" transform="translate(0)" clip-path="url(#clip-path-2)">
      <path id="Path_33" data-name="Path 33" d="M219.866,228a18.266,18.266,0,1,0,18.266,18.266A18.266,18.266,0,0,0,219.866,228" transform="translate(-140.509 -170.157)" fill="#26cdf0"/>
    </g>
    <g id="Group_20" data-name="Group 20" transform="translate(64.818 73.573)" clip-path="url(#clip-path-17)">
      <rect id="Rectangle_49" data-name="Rectangle 49" width="32.905" height="23.292" transform="translate(28.015 23.475) rotate(-170)" fill="url(#linear-gradient-9)"/>
    </g>
    <g id="Group_21" data-name="Group 21" transform="translate(0)" clip-path="url(#clip-path-18)">
      <path id="Path_35" data-name="Path 35" d="M241.36,256.8a10.96,10.96,0,1,0,10.96,10.96,10.96,10.96,0,0,0-10.96-10.96" transform="translate(-162.003 -191.65)" fill="#26cdf0"/>
    </g>
    <g id="Group_22" data-name="Group 22" transform="translate(72.051 76.11)" clip-path="url(#clip-path-19)">
      <rect id="Rectangle_51" data-name="Rectangle 51" width="14.613" height="7.307" transform="translate(0)" fill="url(#linear-gradient-10)"/>
    </g>
    <g id="Group_23" data-name="Group 23" transform="translate(0)" clip-path="url(#clip-path-20)">
      <path id="Path_37" data-name="Path 37" d="M262.853,285.6a3.653,3.653,0,1,0,3.653,3.653,3.653,3.653,0,0,0-3.653-3.653" transform="translate(-342.379 -209.49)"/>
      <path id="Path_58" data-name="Path 58" d="M262.853,285.6a3.653,3.653,0,1,0,3.653,3.653,3.653,3.653,0,0,0-3.653-3.653" transform="translate(-342.379 -209.49)"/>
      <path id="Path_59" data-name="Path 59" d="M262.853,285.6a3.653,3.653,0,1,0,3.653,3.653,3.653,3.653,0,0,0-3.653-3.653" transform="translate(-183.496 -213.143)" fill="#26cdf0"/>
    </g>
  </g>
</svg>
